# xmcd CD database file
#
# Track frame offsets:
#	150
#	24537
#	59996
#	89587
#	109176
#	129696
#	150592
#	173155
#
# Disc length: 2827 seconds
#
# Revision: 0
# Processed by: cddbd v1.4PL0 Copyright (c) Steve Scherf et al.
# Submitted via: CDex 1.51
#
DISCID=6e0b0908
DTITLE=Vincent Bidal - Trio
DYEAR=2003
DGENRE=Jazz
TTITLE0=Sensual
TTITLE1=Love for sale
TTITLE2=Mistral gagnant
TTITLE3=Stand by me
TTITLE4=21 janvier
TTITLE5=Farwell Daddy
TTITLE6=It ain't over till it's over
TTITLE7=Caravan
EXTD=YEAR: 2003
EXTT0=
EXTT1=
EXTT2=
EXTT3=
EXTT4=
EXTT5=
EXTT6=
EXTT7=
PLAYORDER=
